# File produced by Open Asset Import Library (http://www.assimp.sf.net)
# (assimp v3.1.6393133)

mtllib keypad%20sub.mtl

# vertex positions
v 0.000000 0.486713 0.359950
v -0.041574 0.528283 0.359950
v -0.041574 0.528283 0.216076
v 0.000000 0.486713 0.216076
v 0.000000 0.528283 0.401520
v 0.000000 1.431247 0.401520
v -0.041574 1.431247 0.359950
v 0.041574 0.528283 0.359950
v 0.078660 0.528283 0.216076
v 0.041574 1.431247 0.359950
v -0.041574 1.750739 0.359950
v 0.000000 1.792310 0.359950
v 0.000000 1.792310 0.216076
v -0.041574 1.750739 0.216076
v 0.041574 1.750739 0.359950
v 0.041574 1.750739 0.216076
v -0.041574 1.431247 -0.359950
v 0.000000 1.431247 -0.401520
v 0.000000 0.528283 -0.401520
v -0.041574 0.528283 -0.359950
v 0.041574 1.431247 -0.359950
v 0.041574 0.528283 -0.359950
v 0.078660 0.638554 0.216076
v 0.078660 0.895854 0.216076
v 0.078660 1.148350 0.216076
v 0.078660 1.379081 0.216076
v 0.078660 1.431247 0.216076
v -0.041574 1.431247 0.216076
v 0.000000 1.750739 0.401520
v -0.041574 1.750739 -0.359950
v 0.000000 1.792310 -0.359950
v 0.000000 1.750739 -0.401520
v 0.041574 1.750739 -0.359950
v 0.000000 0.486713 -0.359950
v -0.041574 1.633522 0.359950
v 0.000000 1.633522 0.401520
v -0.041574 1.633522 0.216076
v 0.000000 1.633522 -0.401520
v -0.041574 1.633522 -0.359950
v 0.041574 1.633522 -0.359950
v 0.041574 1.633522 0.359950
v 0.041574 1.633522 0.216076
v 0.000000 0.486713 -0.237559
v -0.041574 0.528283 -0.237559
v 0.078660 0.528283 -0.237559
v 0.078660 1.431247 -0.237559
v 0.078660 1.379081 -0.237559
v 0.078660 1.148350 -0.237559
v 0.078660 1.154312 -0.237559
v 0.078660 0.895853 -0.237559
v 0.078660 0.638554 -0.237559
v 0.041574 1.633522 -0.237559
v 0.041574 1.750739 -0.237559
v 0.000000 1.792310 -0.237559
v -0.041574 1.750739 -0.237559
v -0.041574 1.633522 -0.237559
v -0.041574 1.431247 -0.237559
v 0.008790 1.633522 0.216076
v 0.008790 1.431247 0.216076
v 0.008790 1.431247 -0.237559
v 0.008790 1.633522 -0.237559
v 0.102163 1.348547 -0.112724
v 0.102163 1.178883 -0.112724
v 0.102163 1.178883 -0.212425
v 0.102163 1.348547 -0.212425
v 0.078660 0.528283 -0.087591
v 0.078660 0.528283 0.070792
v 0.102163 1.121231 -0.222435
v 0.102163 1.116771 -0.222418
v 0.102163 1.117239 -0.103926
v 0.102163 0.928390 -0.103181
v 0.102163 0.927922 -0.221673
v 0.102163 0.870410 -0.218997
v 0.102163 0.870410 -0.106152
v 0.102163 0.663997 -0.106152
v 0.102163 0.663997 -0.218997
v 0.078660 0.638554 -0.087591
v 0.078660 1.379081 0.070792
v 0.078660 1.379081 -0.087591
v 0.102163 1.176769 0.194120
v 0.102163 1.176769 0.092747
v 0.102163 1.350662 0.092747
v 0.102163 1.350662 0.194120
v 0.102163 0.925490 0.094112
v 0.102163 1.118713 0.094112
v 0.102163 1.118713 0.192755
v 0.102163 0.925490 0.192755
v 0.102163 0.667126 0.093553
v 0.102163 0.867282 0.093553
v 0.102163 0.867282 0.193314
v 0.102163 0.667126 0.193314
v 0.078660 0.638554 0.070792
v 0.102163 1.352154 0.045580
v 0.102163 1.175276 0.045580
v 0.102163 1.175276 -0.062379
v 0.102163 1.352154 -0.062379
v 0.102163 0.926037 -0.066514
v 0.102163 1.118166 -0.066514
v 0.102163 1.118166 0.049715
v 0.102163 0.926037 0.049715
v 0.102163 0.666447 -0.068258
v 0.102163 0.867961 -0.068258
v 0.102163 0.867961 0.051458
v 0.102163 0.666447 0.051458
v 0.078660 1.148350 0.070792
v 0.078660 1.148350 -0.087591
v 0.078660 0.895853 0.070792
v 0.078660 0.895853 -0.087591

# UV coordinates
vt 0.159141 0.756944
vt 0.167454 0.740406
vt 0.233239 0.748153
vt 0.230247 0.781001
vt 0.142454 0.748084
vt 0.096563 0.321713
vt 0.129149 0.326875
vt 0.118078 0.765486
vt 0.221678 0.819676
vt 0.063865 0.315991
vt 0.160054 0.208959
vt 0.155249 0.193338
vt 0.189881 0.168437
vt 0.206304 0.194588
vt 0.137063 0.183336
vt 0.164900 0.148878
vt 0.473456 0.295503
vt 0.501918 0.292384
vt 0.520332 0.720168
vt 0.494511 0.716649
vt 0.529955 0.289413
vt 0.547491 0.732493
vt 0.592634 0.969931
vt 0.568725 0.906012
vt 0.618096 0.887614
vt 0.735076 0.847667
vt 0.849307 0.810956
vt 0.954646 0.780228
vt 0.977211 0.772335
vt 0.999998 0.837512
vt 0.202697 0.330355
vt 0.145202 0.204807
vt 0.442052 0.157464
vt 0.454997 0.136184
vt 0.463170 0.156308
vt 0.478008 0.144182
vt 0.503587 0.729102
vt 0.150537 0.249733
vt 0.125829 0.237881
vt 0.208581 0.244662
vt 0.480772 0.200180
vt 0.455057 0.204801
vt 0.506500 0.189735
vt 0.111710 0.215577
vt 0.092702 0.124211
vt 0.020716 0.229311
vt 0.451582 0.763675
vt 0.441329 0.731627
vt 0.466542 0.800278
vt 0.934753 0.573880
vt 0.910590 0.569225
vt 0.845850 0.554939
vt 0.847280 0.555219
vt 0.742986 0.480908
vt 0.644563 0.419077
vt 0.608678 0.381239
vt 0.644620 0.348133
vt 0.956380 0.529082
vt 0.552296 0.160923
vt 0.590872 0.268011
vt 0.505591 0.100443
vt 0.442929 0.096920
vt 0.393006 0.135161
vt 0.402074 0.204414
vt 0.415106 0.302209
vt 0.379455 0.102792
vt 0.365118 0.071152
vt 0.336110 0.013724
vt 0.786198 0.104905
vt 0.807033 0.201160
vt 0.602631 0.234937
vt 0.569713 0.151562
vt 0.906075 0.629197
vt 0.830250 0.629147
vt 0.848602 0.577609
vt 0.900957 0.583030
vt 0.382678 0.811916
vt 0.303579 0.817887
vt 0.000002 0.202205
vt 0.084673 0.111180
vt 0.811999 0.233392
vt 0.329259 0.000002
vt 0.000000 0.000000
vt 0.725311 0.488579
vt 0.689096 0.531268
vt 0.613081 0.475993
vt 0.646046 0.436525
vt 0.581991 0.460960
vt 0.552160 0.416896
vt 0.938798 0.713029
vt 0.923928 0.643038
vt 0.859530 0.792713
vt 0.845709 0.744900
vt 0.926286 0.729011
vt 0.936568 0.771571
vt 0.729246 0.781661
vt 0.815441 0.753963
vt 0.829978 0.800738
vt 0.745306 0.828070
vt 0.610120 0.826928
vt 0.699790 0.791915
vt 0.715449 0.838544
vt 0.627619 0.868998
vt 0.542953 0.841311
vt 0.590150 0.819669
vt 0.920636 0.702069
vt 0.837945 0.715474
vt 0.826922 0.660841
vt 0.910567 0.657356
vt 0.701399 0.698843
vt 0.795189 0.665469
vt 0.807283 0.724322
vt 0.720479 0.752655
vt 0.576835 0.751526
vt 0.670135 0.710556
vt 0.689657 0.765006
vt 0.599271 0.801705
vt 0.508992 0.772575
vt 0.556181 0.746469
vt 0.826364 0.734097
vt 0.808640 0.644818
vt 0.709269 0.771945
vt 0.680094 0.691259
vt 0.823973 0.551994
vt 0.821908 0.546719
vt 0.790896 0.635016
vt 0.692510 0.672137
vt 0.694268 0.548995
vt 0.743450 0.494789
vt 0.751467 0.514679
vt 0.712425 0.557073
vt 0.747549 0.499534
vt 0.689550 0.549471
vt 0.594639 0.480087
vt 0.598355 0.469663

# vertex normals
vn 0.000000 -0.986414 0.164276
vn -0.974880 -0.042910 0.218557
vn -0.999033 -0.043973 0.000000
vn 0.000001 -1.000000 0.000000
vn 0.000000 -0.043969 0.999033
vn 0.000000 0.000000 1.000000
vn -0.975779 0.000000 0.218758
vn 0.919851 -0.040488 0.390172
vn 0.884907 -0.458417 0.082421
vn 0.830419 0.000000 0.557140
vn -0.945413 0.247532 0.211950
vn 0.000000 0.975784 0.218737
vn -0.000000 1.000000 0.000000
vn -0.967391 0.253287 0.000000
vn 0.945413 0.247532 0.211950
vn 0.967391 0.253287 0.000000
vn -0.969324 0.000000 -0.245784
vn 0.000000 0.000000 -1.000000
vn 0.000000 -0.043969 -0.999033
vn -0.968443 -0.042627 -0.245561
vn 0.879047 0.000000 -0.476736
vn 0.904379 -0.039807 -0.424869
vn 0.972989 -0.053808 0.224493
vn 0.937531 -0.018629 0.347403
vn 0.937081 -0.020564 0.348505
vn 0.947980 0.098072 0.302846
vn 0.839640 0.515875 -0.169935
vn -1.000000 0.000000 0.000000
vn 0.000000 0.253263 0.967398
vn -0.939538 0.245994 -0.238232
vn 0.000000 0.969330 -0.245761
vn 0.000000 0.253263 -0.967398
vn 0.939538 0.245994 -0.238232
vn 0.000000 -0.969330 -0.245761
vn -0.000000 0.000000 -1.000000
vn -0.969325 0.000000 -0.245784
vn 0.929511 0.000000 -0.368795
vn 0.972033 0.087537 0.217919
vn 0.993206 -0.095540 -0.066436
vn -0.112610 -0.993639 0.000000
vn -0.999033 -0.043973 0.000000
vn 0.953096 -0.261259 -0.152813
vn 0.863288 0.499260 0.073986
vn 0.977947 0.057434 -0.200801
vn 0.927453 0.081121 -0.365034
vn 0.941818 -0.000256 -0.336122
vn 0.817786 0.038917 -0.574205
vn 0.960446 -0.029176 -0.276935
vn 0.991263 -0.111005 0.071238
vn 0.000000 1.000000 0.000000
vn -0.967391 0.253287 0.000000
vn 0.975903 -0.158174 -0.150311
vn 0.935340 0.323085 -0.144064
vn 0.943003 0.325732 0.068152
vn 0.984616 -0.159586 0.071160
vn 0.982256 0.095019 0.161696
vn 0.982256 -0.095018 0.161696
vn 0.982256 -0.095019 -0.161696
vn 0.982256 0.095019 -0.161696
vn 1.000000 -0.000000 0.000000
vn 1.000000 -0.000000 -0.000000
vn 0.537784 -0.003326 -0.843076
vn 0.791706 0.610556 0.020566
vn 0.984039 0.095174 0.150364
vn 0.984161 -0.093628 0.150538
vn 0.782211 -0.327682 -0.529878
vn 0.983432 0.086958 -0.159061
vn 0.983432 0.086958 0.159061
vn 0.983432 -0.086958 0.159061
vn 0.983432 -0.086958 -0.159061
vn 0.991769 -0.125821 -0.023741
vn 0.971350 0.231885 0.052044
vn 0.971488 0.232091 0.048429
vn 0.981611 -0.096141 0.164917
vn 0.981610 -0.096141 -0.164917
vn 0.981611 0.096141 -0.164917
vn 0.981611 0.096141 0.164917
vn 0.981973 -0.085945 -0.168351
vn 0.981973 0.085945 -0.168351
vn 0.981973 0.085945 0.168351
vn 0.981973 -0.085945 0.168351
vn 0.982059 -0.084119 -0.168772
vn 0.982059 0.084119 -0.168772
vn 0.982059 0.084119 0.168772
vn 0.982059 -0.084119 0.168772
vn 0.992532 -0.119233 -0.025766
vn 0.983480 0.094305 0.154508
vn 0.983480 -0.094305 0.154508
vn 0.983481 -0.094305 -0.154508
vn 0.983480 0.094305 -0.154508
vn 0.984765 -0.090006 -0.148783
vn 0.984765 0.090006 -0.148783
vn 0.984765 0.090006 0.148783
vn 0.984765 -0.090006 0.148783
vn 0.984918 -0.088372 -0.148753
vn 0.984918 0.088372 -0.148753
vn 0.984918 0.088372 0.148753
vn 0.984918 -0.088372 0.148753
vn 0.999992 0.001203 0.003713
vn 0.999915 0.013020 -0.000802
vn 0.999983 0.005407 -0.002186
vn 0.999975 0.004166 -0.005670

# Mesh
g pCube1
usemtl lambert1
f 4/4/4 1/1/1 2/2/2
f 2/2/2 3/3/3 4/4/4
f 7/7/7 2/2/2 5/5/5
f 5/5/5 6/6/6 7/7/7
f 9/9/9 8/8/8 1/1/1
f 1/1/1 4/4/4 9/9/9
f 6/6/6 5/5/5 8/8/8
f 8/8/8 10/10/10 6/6/6
f 14/14/14 11/11/11 12/12/12
f 12/12/12 13/13/13 14/14/14
f 13/13/13 12/12/12 15/15/15
f 15/15/15 16/16/16 13/13/13
f 20/20/20 17/17/17 18/18/18
f 18/18/18 19/19/19 20/20/20
f 19/19/19 18/18/18 21/21/21
f 21/21/21 22/22/22 19/19/19
f 10/30/10 8/23/8 9/24/9
f 10/30/10 9/24/9 23/25/23
f 10/30/10 23/25/23 24/26/24
f 10/30/10 24/26/24 25/27/25
f 10/30/10 25/27/25 26/28/26
f 26/28/26 27/29/27 10/30/10
f 7/7/7 28/31/28 3/3/3
f 3/3/3 2/2/2 7/7/7
f 1/1/1 5/5/5 2/2/2
f 8/8/8 5/5/5 1/1/1
f 11/11/11 29/32/29 12/12/12
f 12/12/12 29/32/29 15/15/15
f 30/33/30 31/34/31 32/35/32
f 32/35/32 31/34/31 33/36/33
f 20/20/20 19/19/19 34/37/34
f 34/37/34 19/19/19 22/22/22
f 11/11/11 35/38/7 36/39/6
f 36/39/6 29/32/29 11/11/11
f 11/11/11 14/14/14 37/40/28
f 37/40/28 35/38/7 11/11/11
f 39/42/36 30/33/30 32/35/32
f 32/35/32 38/41/35 39/42/36
f 38/41/35 32/35/32 33/36/33
f 33/36/33 40/43/37 38/41/35
f 15/15/15 41/44/38 42/45/39
f 42/45/39 16/16/16 15/15/15
f 29/32/29 36/39/6 41/44/38
f 41/44/38 15/15/15 29/32/29
f 35/38/7 7/7/7 6/6/6
f 6/6/6 36/39/6 35/38/7
f 36/39/6 6/6/6 10/10/10
f 10/10/10 41/44/38 36/39/6
f 41/44/38 10/10/10 27/46/27
f 27/46/27 42/45/39 41/44/38
f 18/18/18 38/41/35 40/43/37
f 40/43/37 21/21/21 18/18/18
f 17/17/17 39/42/36 38/41/35
f 38/41/35 18/18/18 17/17/17
f 35/38/7 37/40/28 28/31/28
f 28/31/28 7/7/7 35/38/7
f 34/37/34 43/47/40 44/48/41
f 44/48/41 20/20/20 34/37/34
f 22/22/22 45/49/42 43/47/40
f 43/47/40 34/37/34 22/22/22
f 21/58/21 46/50/43 47/51/44
f 47/51/44 48/52/45 49/53/46
f 49/53/46 50/54/47 51/55/48
f 51/55/48 45/56/42 22/57/22
f 51/55/48 22/57/22 21/58/21
f 21/58/21 47/51/44 49/53/46
f 49/53/46 51/55/48 21/58/21
f 40/43/37 52/59/49 46/60/43
f 46/60/43 21/21/21 40/43/37
f 33/36/33 53/61/16 52/59/49
f 52/59/49 40/43/37 33/36/33
f 31/34/31 54/62/50 53/61/16
f 53/61/16 33/36/33 31/34/31
f 30/33/30 55/63/51 54/62/50
f 54/62/50 31/34/31 30/33/30
f 30/33/30 39/42/36 56/64/28
f 56/64/28 55/63/51 30/33/30
f 39/42/36 17/17/17 57/65/28
f 57/65/28 56/64/28 39/42/36
f 17/17/17 20/20/20 44/48/41
f 44/48/41 57/65/28 17/17/17
f 43/47/40 4/4/4 3/3/3
f 3/3/3 44/48/41 43/47/40
f 28/31/28 57/65/28 44/48/41
f 44/48/41 3/3/3 28/31/28
f 37/40/28 56/64/28 57/65/28
f 57/65/28 28/31/28 37/40/28
f 14/14/14 55/63/51 56/64/28
f 56/64/28 37/40/28 14/14/14
f 55/63/51 14/14/14 13/13/13
f 13/13/13 54/66/50 55/63/51
f 54/66/50 13/13/13 16/16/16
f 16/16/16 53/67/16 54/66/50
f 53/67/16 16/16/16 42/45/39
f 42/45/39 52/68/49 53/67/16
f 61/72/55 58/69/52 59/70/53
f 59/70/53 60/71/54 61/72/55
f 65/76/59 62/73/56 63/74/57
f 63/74/57 64/75/58 65/76/59
f 67/78/61 9/9/9 4/4/4
f 67/78/61 4/4/4 43/47/40
f 67/78/61 43/47/40 45/49/42
f 45/49/42 66/77/60 67/78/61
f 58/80/52 42/45/39 27/46/27
f 27/46/27 59/79/53 58/80/52
f 59/70/53 27/81/27 46/60/43
f 46/60/43 60/71/54 59/70/53
f 60/71/54 46/60/43 52/59/49
f 52/59/49 61/72/55 60/71/54
f 61/82/55 52/68/49 42/45/39
f 42/45/39 58/80/52 61/82/55
f 69/83/63 70/83/64 71/83/65
f 69/83/63 71/83/65 72/83/66
f 68/83/62 69/83/63 72/83/66
f 76/87/70 73/84/67 74/85/68
f 74/85/68 75/86/69 76/87/70
f 45/56/42 51/55/48 77/88/71
f 77/88/71 66/89/60 45/56/42
f 27/29/27 26/28/26 78/90/72
f 27/29/27 78/90/72 79/91/73
f 27/29/27 79/91/73 47/51/44
f 47/51/44 46/50/43 27/29/27
f 83/95/77 80/92/74 81/93/75
f 81/93/75 82/94/76 83/95/77
f 87/99/81 84/96/78 85/97/79
f 85/97/79 86/98/80 87/99/81
f 91/103/85 88/100/82 89/101/83
f 89/101/83 90/102/84 91/103/85
f 9/24/9 67/104/61 92/105/86
f 92/105/86 23/25/23 9/24/9
f 96/109/90 93/106/87 94/107/88
f 94/107/88 95/108/89 96/109/90
f 100/113/94 97/110/91 98/111/92
f 98/111/92 99/112/93 100/113/94
f 104/117/98 101/114/95 102/115/96
f 102/115/96 103/116/97 104/117/98
f 67/104/61 66/118/60 77/119/71
f 77/119/71 92/105/86 67/104/61
f 80/92/74 25/27/25 105/120/99
f 105/120/99 81/93/75 80/92/74
f 81/93/75 105/120/99 78/90/72
f 78/90/72 82/94/76 81/93/75
f 82/94/76 78/90/72 26/28/26
f 26/28/26 83/95/77 82/94/76
f 83/95/77 26/28/26 25/27/25
f 25/27/25 80/92/74 83/95/77
f 93/106/87 78/90/72 105/120/99
f 105/120/99 94/107/88 93/106/87
f 94/107/88 105/120/99 106/121/100
f 106/121/100 95/108/89 94/107/88
f 95/108/89 106/121/100 79/91/73
f 79/91/73 96/109/90 95/108/89
f 96/109/90 79/91/73 78/90/72
f 78/90/72 93/106/87 96/109/90
f 62/73/56 79/91/73 106/121/100
f 106/121/100 63/74/57 62/73/56
f 63/74/57 106/121/100 48/52/45
f 48/52/45 64/75/58 63/74/57
f 64/75/58 48/52/45 47/51/44
f 47/51/44 65/76/59 64/75/58
f 65/76/59 47/51/44 79/91/73
f 79/91/73 62/73/56 65/76/59
f 84/96/78 107/122/101 105/120/99
f 105/120/99 85/97/79 84/96/78
f 85/97/79 105/120/99 25/27/25
f 25/27/25 86/98/80 85/97/79
f 86/98/80 25/27/25 24/26/24
f 24/26/24 87/99/81 86/98/80
f 87/99/81 24/26/24 107/122/101
f 107/122/101 84/96/78 87/99/81
f 97/110/91 108/123/102 106/121/100
f 106/121/100 98/111/92 97/110/91
f 98/111/92 106/121/100 105/120/99
f 105/120/99 99/112/93 98/111/92
f 99/112/93 105/120/99 107/122/101
f 107/122/101 100/113/94 99/112/93
f 100/113/94 107/122/101 108/123/102
f 108/123/102 97/110/91 100/113/94
f 68/125/62 49/53/46 48/52/45
f 48/52/45 69/124/63 68/125/62
f 69/124/63 48/52/45 106/121/100
f 106/121/100 70/126/64 69/124/63
f 70/126/64 106/121/100 108/123/102
f 108/123/102 71/127/65 70/126/64
f 71/131/65 108/128/102 50/129/47
f 50/129/47 72/130/66 71/131/65
f 72/132/66 50/54/47 49/53/46
f 49/53/46 68/125/62 72/132/66
f 88/100/82 92/105/86 107/122/101
f 107/122/101 89/101/83 88/100/82
f 89/101/83 107/122/101 24/26/24
f 24/26/24 90/102/84 89/101/83
f 90/102/84 24/26/24 23/25/23
f 23/25/23 91/103/85 90/102/84
f 91/103/85 23/25/23 92/105/86
f 92/105/86 88/100/82 91/103/85
f 101/114/95 77/119/71 108/123/102
f 108/123/102 102/115/96 101/114/95
f 102/115/96 108/123/102 107/122/101
f 107/122/101 103/116/97 102/115/96
f 103/116/97 107/122/101 92/105/86
f 92/105/86 104/117/98 103/116/97
f 104/117/98 92/105/86 77/119/71
f 77/119/71 101/114/95 104/117/98
f 73/84/67 50/129/47 108/128/102
f 108/128/102 74/85/68 73/84/67
f 74/85/68 108/133/102 77/134/71
f 77/134/71 75/86/69 74/85/68
f 75/135/69 77/88/71 51/55/48
f 51/55/48 76/87/70 75/135/69
f 76/87/70 51/55/48 50/54/47
f 50/54/47 73/84/67 76/87/70
